<svg width="234" height="33" viewBox="0 0 234 33" fill="none" xmlns="http://www.w3.org/2000/svg">
<path d="M14.8442 3.4C17.9376 3.4 20.5376 3.86667 22.6442 4.8V12.36H20.8042L18.9642 6.44C17.9242 6.2 16.7242 6.08 15.3642 6.08C8.72422 6.08 5.40422 10.0533 5.40422 18C5.40422 25.9467 8.45755 29.92 14.5642 29.92C15.4709 29.92 16.2842 29.8933 17.0042 29.84C17.7242 29.7867 18.3776 29.7067 18.9642 29.6L21.2842 23.28H23.1242L22.8442 30.84C22.4709 31.0533 21.9376 31.2667 21.2442 31.48C20.5509 31.6933 19.7909 31.88 18.9642 32.04C18.1642 32.2 17.3242 32.3333 16.4442 32.44C15.5909 32.5467 14.8042 32.6 14.0842 32.6C9.57755 32.6 6.16422 31.3467 3.84422 28.84C1.52422 26.3333 0.364219 22.72 0.364219 18C0.364219 13.28 1.56422 9.66667 3.96422 7.16C6.39089 4.65333 10.0176 3.4 14.8442 3.4ZM26.0002 32V30.28L29.4002 29.48V3.24H26.0002V1.52L32.4002 -4.76837e-07H34.2002V29.48L37.6002 30.28V32H26.0002ZM39.9261 21.76C39.9261 18.8267 40.7661 16.3733 42.4461 14.4C44.1261 12.4 46.4461 11.4 49.4061 11.4C50.9528 11.4 52.2994 11.6933 53.4461 12.28C54.6194 12.84 55.5394 13.6267 56.2061 14.64C56.8994 15.6533 57.4061 16.7867 57.7261 18.04C58.0461 19.2933 58.2061 20.6533 58.2061 22.12H44.6861C44.8728 24.3067 45.6061 26.1733 46.8861 27.72C48.1661 29.24 49.9128 30 52.1261 30C53.5394 30 55.0728 29.6933 56.7261 29.08L57.4061 30.96C54.9261 32.0533 52.5661 32.6 50.3261 32.6C47.0994 32.6 44.5528 31.5467 42.6861 29.44C40.8461 27.3333 39.9261 24.7733 39.9261 21.76ZM44.6861 20.16L53.2461 19.52C53.1661 17.92 52.7928 16.5333 52.1261 15.36C51.4594 14.1867 50.5128 13.6 49.2861 13.6C47.9528 13.6 46.8594 14.2267 46.0061 15.48C45.1794 16.7333 44.7394 18.2933 44.6861 20.16ZM61.0914 27.04C61.0914 22.4267 65.1847 20.12 73.3714 20.12V18.72C73.3714 16.4 73.0381 14.9333 72.3714 14.32C71.7314 13.68 70.7181 13.36 69.3314 13.36L64.6514 17.36C64.0114 16.96 63.4647 16.4 63.0114 15.68C62.5847 14.9333 62.3581 14.1467 62.3314 13.32C63.4514 12.7067 64.6781 12.24 66.0114 11.92C67.3447 11.5733 68.6647 11.4 69.9714 11.4C75.4381 11.4 78.1714 13.6933 78.1714 18.28V29.4H81.2914V30.72C80.6781 31.3067 79.9981 31.76 79.2514 32.08C78.5047 32.4267 77.7714 32.6 77.0514 32.6C75.4781 32.6 74.3181 31.92 73.5714 30.56C71.7847 31.92 69.7714 32.6 67.5314 32.6C65.7714 32.6 64.2514 32.1333 62.9714 31.2C61.7181 30.2667 61.0914 28.88 61.0914 27.04ZM66.1314 26.88C66.1314 27.8667 66.4514 28.6 67.0914 29.08C67.7581 29.56 68.5981 29.8 69.6114 29.8C71.0781 29.8 72.3314 29.3467 73.3714 28.44V22.16C70.9714 22.16 69.1581 22.6 67.9314 23.48C66.7314 24.3333 66.1314 25.4667 66.1314 26.88ZM83.2017 32V30.28L86.6017 29.48V15.24H83.2017V13.52L89.6017 12H91.3617V14.48C93.5217 12.4267 96.0284 11.4 98.8817 11.4C99.0417 11.9067 99.1217 12.4667 99.1217 13.08C99.1217 14.0667 99.0017 14.9467 98.7617 15.72L93.6817 15.28C92.8817 15.6533 92.1084 16.1067 91.3617 16.64V29.48L95.5617 30.28V32H83.2017ZM108.825 5.84V4H120.945V5.84L117.665 6.52L124.465 25.72L130.865 6.72L127.705 5.84V4H137.345V5.84L133.665 6.72L124.865 32.28H121.705L112.385 6.72L108.825 5.84ZM146.964 5.92C146.964 6.74667 146.67 7.45333 146.084 8.04C145.524 8.6 144.83 8.88 144.004 8.88C143.177 8.88 142.47 8.6 141.884 8.04C141.324 7.45333 141.044 6.74667 141.044 5.92C141.044 5.09333 141.324 4.4 141.884 3.84C142.47 3.25333 143.177 2.96 144.004 2.96C144.83 2.96 145.524 3.24 146.084 3.8C146.67 4.36 146.964 5.06667 146.964 5.92ZM138.124 32V30.28L141.524 29.48V15.24H138.124V13.52L144.524 12H146.284V29.48L149.684 30.28V32H138.124ZM152.472 31.68V25.96H154.312L155.832 30.16C156.765 30.32 157.805 30.4 158.952 30.4C160.658 30.4 161.858 30.1867 162.552 29.76C163.272 29.3067 163.632 28.5467 163.632 27.48C163.632 26.6533 163.245 25.9733 162.472 25.44C161.698 24.88 160.365 24.2267 158.472 23.48C156.685 22.7333 155.298 21.8533 154.312 20.84C153.325 19.8 152.832 18.4933 152.832 16.92C152.832 15.1333 153.578 13.7733 155.072 12.84C156.592 11.88 158.565 11.4 160.992 11.4C163.098 11.4 165.005 11.6533 166.712 12.16V17.6H165.032L163.712 13.84C162.938 13.6267 162.032 13.52 160.992 13.52C159.552 13.52 158.538 13.7467 157.952 14.2C157.392 14.6267 157.112 15.28 157.112 16.16C157.112 16.6667 157.298 17.12 157.672 17.52C158.045 17.92 158.458 18.2533 158.912 18.52C159.392 18.76 160.152 19.1067 161.192 19.56C163.618 20.5733 165.352 21.6 166.392 22.64C167.458 23.6533 167.992 24.9733 167.992 26.6C167.992 28.5467 167.205 30.04 165.632 31.08C164.058 32.0933 162.005 32.6 159.472 32.6C156.965 32.6 154.632 32.2933 152.472 31.68ZM179.932 5.92C179.932 6.74667 179.639 7.45333 179.052 8.04C178.492 8.6 177.799 8.88 176.972 8.88C176.146 8.88 175.439 8.6 174.852 8.04C174.292 7.45333 174.012 6.74667 174.012 5.92C174.012 5.09333 174.292 4.4 174.852 3.84C175.439 3.25333 176.146 2.96 176.972 2.96C177.799 2.96 178.492 3.24 179.052 3.8C179.639 4.36 179.932 5.06667 179.932 5.92ZM171.092 32V30.28L174.492 29.48V15.24H171.092V13.52L177.492 12H179.252V29.48L182.652 30.28V32H171.092ZM195.165 11.4C198.098 11.4 200.525 12.4 202.445 14.4C204.365 16.3733 205.325 18.8933 205.325 21.96C205.325 25.0533 204.365 27.6 202.445 29.6C200.525 31.6 198.098 32.6 195.165 32.6C192.232 32.6 189.792 31.6 187.845 29.6C185.925 27.6 184.965 25.0533 184.965 21.96C184.965 18.8933 185.925 16.3733 187.845 14.4C189.792 12.4 192.232 11.4 195.165 11.4ZM195.165 13.6C193.512 13.6 192.232 14.36 191.325 15.88C190.445 17.4 190.005 19.4267 190.005 21.96C190.005 24.4933 190.445 26.5333 191.325 28.08C192.232 29.6267 193.512 30.4 195.165 30.4C196.818 30.4 198.085 29.6267 198.965 28.08C199.872 26.5067 200.325 24.4667 200.325 21.96C200.325 19.4267 199.872 17.4 198.965 15.88C198.085 14.36 196.818 13.6 195.165 13.6ZM208.436 32V30.28L211.836 29.48V15.24H208.436V13.52L214.836 12H216.636V13.92C218.663 12.24 220.809 11.4 223.076 11.4C225.156 11.4 226.796 11.9867 227.996 13.16C229.196 14.3333 229.796 15.84 229.796 17.68V29.48L233.196 30.28V32H222.436V30.28L225.036 29.48V18.4C225.036 15.68 223.876 14.32 221.556 14.32C219.983 14.32 218.343 14.9333 216.636 16.16V29.48L219.236 30.28V32H208.436Z" fill="#484848"/>
</svg>
